<svg width="90" height="68" xmlns="http://www.w3.org/2000/svg"><g fill="#FFF" fill-rule="nonzero"><path d="M41.75 10.475c0-4.5-2-10-11.25-10-4.5 0-6.25 1.25-8.5 2.75-2.5 1.75-5.75 4-12.25 4-4.25 0-7.25-.75-9.75-1.75 2.75 6.75 9.5 15.25 26.75 15.25 9-.25 15-5.5 15-10.25zM61.75 47.225c-8.75 0-14-2.75-16.75-5-2.75 2.25-8 5-16.75 5-13.75 0-18.5-18.25-19.75-23.75-1-.5-1.75-.75-2.75-1.25L7 33.725c2.25 19.5 26.25 32.5 38 33.5 11-1.25 35-14 37.5-33.5l1.25-11.75c-.75.5-1.75 1-2.75 1.5-.75 5.75-5.5 23.75-19.25 23.75zM68.25 3.225C66 1.725 64 .475 59.75.475c-9.25 0-11.25 5.5-11.25 10 0 4.75 6 10 14.75 10 17.25 0 24-8.5 26.75-15.25-2.5 1-5.5 1.75-9.5 1.75-6.5.25-9.75-2-12.25-3.75z"/></g></svg>